<!DOCTYPE svg PUBLIC "-//W3C//DTD SVG 20010904//EN" "http://www.w3.org/TR/2001/REC-SVG-20010904/DTD/svg10.dtd">
<svg version="1.0" xmlns="http://www.w3.org/2000/svg" width="500px" height="302px" viewBox="0 0 5000 3020" preserveAspectRatio="xMidYMid meet">
<g id="layer101" fill="#ffffff" stroke="none">
 <path d="M2629 3015 c-3 -2 -54 -9 -115 -15 -112 -10 -181 -21 -269 -40 -27 -6 -65 -14 -83 -17 -18 -3 -35 -9 -38 -14 -3 -5 -18 -9 -34 -9 -16 0 -32 -4 -35 -10 -3 -5 -15 -10 -26 -10 -10 0 -27 -4 -37 -9 -9 -5 -28 -13 -42 -19 -180 -71 -360 -174 -520 -296 -141 -108 -317 -284 -425 -425 -10 -14 -22 -28 -25 -31 -3 -3 -17 -21 -30 -40 -13 -19 -30 -41 -37 -48 -7 -7 -13 -17 -13 -22 0 -5 -6 -15 -13 -22 -17 -17 -77 -105 -77 -113 0 -3 -9 -15 -20 -27 -11 -12 -20 -28 -20 -35 0 -7 -4 -13 -10 -13 -5 0 -10 -5 -10 -11 0 -6 -8 -23 -19 -37 -10 -15 -27 -43 -38 -62 -11 -19 -35 -62 -53 -95 -47 -85 -140 -274 -140 -285 0 -6 -4 -10 -10 -10 -5 0 -10 -9 -10 -20 0 -11 -4 -20 -10 -20 -5 0 -10 -9 -10 -20 0 -11 -4 -20 -10 -20 -5 0 -10 -9 -10 -20 0 -11 -4 -20 -10 -20 -5 0 -10 -6 -10 -13 0 -12 -29 -80 -50 -119 -6 -10 -10 -25 -10 -33 0 -8 -4 -15 -10 -15 -5 0 -10 -7 -10 -15 0 -8 -4 -23 -10 -33 -17 -30 -70 -152 -70 -161 0 -5 -10 -29 -21 -53 -12 -23 -25 -52 -29 -63 -5 -11 -15 -36 -23 -55 -8 -19 -18 -46 -22 -60 -4 -14 -14 -41 -22 -60 -19 -45 -33 -79 -46 -110 -5 -14 -13 -32 -16 -40 -4 -8 -14 -36 -22 -62 -7 -27 -17 -48 -21 -48 -4 0 -8 -11 -8 -25 0 -14 -7 -28 -15 -31 -11 -5 -15 -23 -15 -75 l0 -69 597 2 596 3 16 45 c9 25 19 47 24 48 4 2 7 14 7 27 0 13 4 26 8 29 4 3 14 28 22 56 8 28 18 53 22 56 4 3 8 16 8 30 0 13 5 24 10 24 6 0 10 11 10 24 0 14 5 28 10 31 5 3 10 15 10 26 0 10 4 27 9 37 15 29 29 65 42 107 7 22 17 44 21 49 4 6 8 20 8 33 0 13 4 23 8 23 4 0 14 21 21 48 8 26 17 49 20 52 5 5 25 53 54 138 7 17 15 32 19 32 5 0 8 6 8 13 0 15 82 181 92 185 5 2 8 12 8 23 0 10 5 19 10 19 6 0 10 6 10 13 0 7 9 23 20 35 11 12 20 25 20 29 1 12 77 93 88 93 17 0 45 -88 65 -200 14 -82 14 -462 0 -555 -22 -139 -40 -181 -89 -204 -16 -7 -37 -17 -46 -22 -10 -5 -27 -9 -37 -9 -11 0 -23 -4 -26 -10 -3 -5 -17 -10 -30 -10 -13 0 -27 -4 -30 -10 -3 -5 -17 -10 -30 -10 -13 0 -27 -4 -30 -10 -3 -5 -17 -10 -31 -10 -19 0 -24 -5 -24 -25 0 -13 6 -28 14 -32 15 -8 106 -87 165 -143 30 -27 55 -41 126 -70 132 -54 668 -60 945 -10 30 5 73 12 95 15 37 6 65 15 105 35 8 4 18 27 22 51 4 24 13 69 19 99 8 36 12 131 10 280 -7 699 -5 782 25 824 12 17 16 15 64 -30 28 -26 71 -75 96 -108 25 -34 50 -68 57 -77 7 -8 18 -26 26 -40 8 -13 36 -59 63 -102 26 -43 48 -81 48 -84 0 -3 8 -17 19 -31 43 -63 179 -348 244 -512 5 -14 13 -33 18 -42 5 -10 9 -27 9 -38 0 -11 5 -20 10 -20 6 0 10 -13 10 -30 0 -16 5 -30 10 -30 6 0 10 -13 10 -28 0 -65 -26 -62 648 -62 l611 0 20 26 c19 24 21 40 21 169 0 115 -3 145 -15 155 -8 7 -15 18 -15 26 0 14 -99 216 -110 224 -4 3 -13 16 -20 30 -16 30 -121 193 -129 200 -3 3 -26 34 -50 70 -25 36 -47 67 -50 70 -4 3 -26 34 -50 70 -25 36 -48 67 -51 70 -3 3 -17 21 -30 40 -13 19 -27 37 -30 40 -3 3 -21 27 -40 53 -19 27 -45 61 -57 77 -13 15 -23 32 -23 37 0 6 -9 18 -20 28 -11 10 -20 23 -20 30 0 6 -8 20 -17 31 -10 10 -24 33 -32 49 -7 17 -17 38 -22 47 -26 51 7 96 250 343 195 199 246 255 316 350 47 64 100 147 116 183 7 17 17 32 21 32 5 0 8 9 8 20 0 11 4 20 8 20 4 0 16 27 25 60 10 33 22 62 28 65 5 4 9 70 9 151 l0 145 -497 -4 c-572 -5 -613 -9 -758 -78 -27 -13 -51 -27 -53 -31 -2 -5 -10 -8 -18 -8 -8 0 -14 -4 -14 -8 0 -4 -12 -15 -27 -24 -41 -24 -177 -166 -291 -303 -99 -120 -130 -151 -189 -193 -50 -36 -64 -30 -111 48 -23 39 -42 77 -42 85 0 7 -4 16 -9 19 -19 12 -40 164 -47 349 l-6 147 -152 0 c-84 0 -155 -2 -157 -5z m-1 -372 c1 -21 6 -60 12 -88 6 -27 13 -65 16 -83 4 -18 11 -35 15 -38 5 -3 9 -12 9 -20 0 -8 14 -45 32 -82 95 -197 219 -301 369 -310 74 -5 165 17 210 49 15 10 30 19 33 19 21 0 208 187 296 295 136 169 243 263 320 280 19 5 177 10 352 12 314 4 316 3 311 -17 -3 -11 -9 -20 -14 -20 -5 0 -9 -5 -9 -11 0 -6 -9 -23 -21 -37 -11 -15 -48 -63 -82 -107 -33 -44 -145 -165 -247 -270 -328 -334 -345 -362 -338 -551 3 -90 6 -106 39 -175 32 -66 149 -254 169 -269 3 -3 17 -21 30 -40 13 -19 27 -37 30 -40 3 -3 17 -21 30 -40 14 -19 32 -44 42 -54 10 -11 18 -26 18 -33 0 -7 3 -13 8 -13 4 0 18 -17 32 -37 14 -21 30 -45 37 -53 56 -72 113 -153 113 -159 0 -5 7 -14 15 -21 9 -7 23 -28 31 -46 9 -19 20 -34 25 -34 5 0 9 -6 9 -13 0 -7 8 -22 18 -33 9 -10 24 -32 32 -49 8 -16 27 -49 43 -72 l28 -43 -345 0 -345 0 -7 35 c-3 19 -10 35 -15 35 -5 0 -9 7 -9 15 0 9 -9 35 -20 57 -11 23 -20 48 -20 55 0 7 -4 13 -10 13 -5 0 -10 9 -10 20 0 11 -4 20 -10 20 -5 0 -10 6 -10 14 0 7 -27 65 -59 127 -32 63 -74 143 -92 179 -19 36 -36 67 -39 70 -10 10 -41 65 -47 82 -3 10 -9 18 -14 18 -5 0 -9 5 -9 11 0 6 -33 58 -72 116 -110 160 -317 363 -370 363 -8 0 -19 5 -25 11 -13 13 -173 13 -187 -1 -5 -5 -20 -10 -33 -10 -13 0 -23 -4 -23 -10 0 -5 -6 -10 -13 -10 -19 0 -110 -102 -133 -151 -50 -103 -60 -143 -75 -316 -8 -99 -9 -174 0 -295 6 -90 13 -245 16 -345 l5 -183 -44 0 c-23 0 -56 -5 -72 -10 -18 -6 -111 -9 -227 -8 l-197 3 14 26 c35 68 69 313 70 514 1 135 -29 422 -45 440 -5 5 -9 21 -9 36 0 15 -4 31 -10 34 -5 3 -10 17 -10 31 0 13 -4 24 -10 24 -5 0 -10 6 -10 13 0 18 -24 67 -32 67 -5 0 -8 6 -8 13 0 18 -88 104 -122 119 -15 7 -28 16 -28 20 0 5 -11 8 -24 8 -14 0 -28 5 -31 10 -8 14 -117 13 -152 -1 -84 -34 -124 -60 -183 -119 -63 -63 -162 -201 -191 -267 -7 -18 -17 -33 -21 -33 -5 0 -8 -9 -8 -20 0 -11 -3 -20 -7 -20 -9 0 -33 -49 -33 -67 0 -7 -4 -13 -10 -13 -5 0 -10 -9 -10 -20 0 -11 -4 -20 -10 -20 -5 0 -10 -7 -10 -15 0 -8 -5 -25 -12 -38 -24 -47 -28 -57 -28 -72 0 -8 -4 -15 -10 -15 -5 0 -10 -7 -10 -15 0 -8 -4 -23 -9 -33 -5 -9 -14 -29 -20 -44 -6 -16 -16 -40 -22 -55 -6 -16 -15 -36 -20 -45 -5 -10 -9 -27 -9 -38 0 -11 -4 -20 -10 -20 -5 0 -10 -11 -10 -24 0 -14 -4 -27 -8 -30 -4 -3 -14 -28 -22 -56 -8 -28 -18 -53 -22 -56 -4 -3 -8 -16 -8 -29 0 -13 -4 -26 -9 -29 -4 -3 -11 -20 -15 -38 -4 -18 -12 -45 -19 -60 l-12 -28 -257 0 c-289 0 -265 -8 -227 77 10 24 19 50 19 58 0 8 5 15 10 15 6 0 10 7 10 15 0 8 4 23 9 33 5 9 13 28 19 42 18 44 48 114 88 207 8 17 14 34 14 37 0 3 14 34 30 68 17 34 30 67 30 75 0 7 5 13 10 13 6 0 10 6 10 13 0 18 225 462 249 491 5 6 21 34 37 61 36 66 145 229 156 233 4 2 8 9 8 15 0 12 13 30 113 151 224 272 463 454 747 568 14 6 33 14 42 19 10 5 27 9 37 9 11 0 23 5 26 10 3 6 17 10 30 10 13 0 27 5 30 10 3 6 21 10 39 10 17 0 36 4 41 9 10 9 41 14 162 29 34 4 65 11 69 15 4 4 31 7 59 7 l52 0 1 -37z"/>
 </g>

</svg>