<!DOCTYPE svg PUBLIC "-//W3C//DTD SVG 20010904//EN" "http://www.w3.org/TR/2001/REC-SVG-20010904/DTD/svg10.dtd">
<svg version="1.0" xmlns="http://www.w3.org/2000/svg" width="400px" height="122px" viewBox="0 0 4000 1220" preserveAspectRatio="xMidYMid meet">
<g id="layer101" fill="#19116b" stroke="none">
 <path d="M0 610 l0 -610 1181 0 c1010 0 1182 2 1195 14 10 11 14 42 14 119 l0 105 57 4 c31 3 59 10 61 16 2 7 12 12 22 12 10 0 20 4 22 8 2 4 18 18 36 31 30 21 88 93 120 149 6 12 12 36 13 54 0 18 4 42 9 53 5 12 9 -35 9 -127 1 -81 5 -158 11 -172 9 -26 11 -26 115 -26 97 0 106 2 113 21 l8 20 27 -21 c24 -19 41 -22 121 -22 80 -1 101 3 148 25 62 29 151 110 170 153 12 26 13 20 16 -68 3 -116 10 -123 103 -116 l59 4 0 -118 0 -118 110 0 110 0 0 119 0 118 49 -5 c28 -2 61 -2 75 2 26 6 26 7 26 116 l0 110 -75 0 -75 0 0 250 0 250 -26 10 c-33 13 -135 13 -168 0 l-26 -10 0 -249 0 -249 -77 -4 c-43 -2 -80 -2 -82 -1 -2 1 4 14 13 27 21 33 23 195 2 234 -7 15 -20 41 -27 57 -19 42 -135 155 -159 155 -11 0 -20 4 -20 9 0 5 -12 11 -27 14 -16 3 -51 11 -80 17 -41 8 -60 8 -95 -5 -23 -8 -49 -15 -57 -15 -8 0 -20 -8 -27 -17 -11 -15 -13 6 -14 135 l0 152 -110 0 c-98 0 -110 -2 -120 -19 -6 -12 -10 -128 -11 -303 0 -167 -4 -275 -9 -263 -5 11 -9 36 -10 55 -1 19 -10 49 -20 65 -11 17 -26 44 -35 60 -9 17 -34 44 -56 60 -22 17 -45 35 -52 40 -25 21 -119 55 -150 55 -15 0 -17 14 -17 111 0 82 -4 114 -14 125 -13 12 -185 14 -1195 14 l-1181 0 0 -610z m2399 134 c106 -21 144 -170 64 -250 -31 -32 -38 -34 -98 -34 -60 0 -67 2 -98 34 -37 37 -52 90 -40 147 7 40 59 95 94 102 40 7 45 7 78 1z m823 -25 c69 -49 78 -164 17 -220 -31 -29 -60 -39 -110 -39 -60 0 -107 29 -133 81 -18 36 -21 95 -6 104 6 3 10 13 10 21 0 22 59 72 89 77 43 7 104 -4 133 -24z"/>
 </g>
<g id="layer102" fill="#ff002d" stroke="none">
 <path d="M0 610 l0 -610 1181 0 c1010 0 1182 2 1195 14 10 11 14 42 14 119 l0 105 57 4 c31 3 59 10 61 16 2 7 12 12 22 12 10 0 20 4 22 8 2 4 18 18 36 31 30 21 88 93 120 149 6 12 12 36 13 54 0 18 4 42 9 53 5 12 9 -35 9 -127 1 -81 5 -158 11 -172 9 -26 11 -26 115 -26 97 0 106 2 113 21 l8 20 27 -21 c24 -19 41 -22 121 -22 80 -1 101 3 148 25 62 29 151 110 170 153 12 26 13 20 16 -68 3 -116 10 -123 103 -116 l59 4 0 -118 0 -118 110 0 110 0 0 119 0 118 49 -5 c28 -2 61 -2 75 2 26 6 26 7 26 116 l0 110 -75 0 -75 0 0 250 0 250 -26 10 c-33 13 -135 13 -168 0 l-26 -10 0 -249 0 -249 -77 -4 c-43 -2 -80 -2 -82 -1 -2 1 4 14 13 27 21 33 23 195 2 234 -7 15 -20 41 -27 57 -19 42 -135 155 -159 155 -11 0 -20 4 -20 9 0 5 -12 11 -27 14 -16 3 -51 11 -80 17 -41 8 -60 8 -95 -5 -23 -8 -49 -15 -57 -15 -8 0 -20 -8 -27 -17 -11 -15 -13 6 -14 135 l0 152 -110 0 c-98 0 -110 -2 -120 -19 -6 -12 -10 -128 -11 -303 0 -167 -4 -275 -9 -263 -5 11 -9 36 -10 55 -1 19 -10 49 -20 65 -11 17 -26 44 -35 60 -9 17 -34 44 -56 60 -22 17 -45 35 -52 40 -25 21 -119 55 -150 55 -15 0 -17 14 -17 111 0 82 -4 114 -14 125 -13 12 -185 14 -1195 14 l-1181 0 0 -610z m1313 148 c12 -36 -4 -47 -72 -50 l-66 -3 -3 -105 c-1 -58 -4 -111 -7 -117 -6 -16 -37 -17 -53 -1 -17 17 -17 259 0 276 17 17 195 16 201 0z m82 -10 c3 -13 5 -63 3 -113 -3 -89 -3 -90 -28 -90 -25 0 -25 0 -27 99 0 55 1 105 4 113 8 22 42 15 48 -9z m95 8 c6 -8 11 -23 10 -33 -6 -56 15 -58 56 -3 30 42 68 60 86 42 8 -8 -1 -27 -30 -66 -23 -30 -42 -60 -42 -66 0 -6 14 -25 30 -42 23 -23 28 -33 20 -43 -16 -19 -51 -10 -77 20 -12 14 -29 25 -38 25 -13 0 -14 -9 -9 -55 7 -59 -4 -85 -36 -85 -12 0 -20 11 -24 31 -8 40 -8 252 0 273 8 20 38 21 54 2z m331 -3 c35 -21 38 -43 7 -44 -97 -3 -103 -4 -106 -21 -3 -16 6 -18 77 -18 l81 0 0 -31 c0 -22 -10 -41 -34 -65 -29 -29 -41 -34 -80 -34 -39 0 -51 5 -81 35 -24 25 -35 45 -35 65 0 95 95 158 171 113z m578 -9 c106 -21 144 -170 64 -250 -31 -32 -38 -34 -98 -34 -60 0 -67 2 -98 34 -37 37 -52 90 -40 147 7 40 59 95 94 102 40 7 45 7 78 1z m823 -25 c69 -49 78 -164 17 -220 -31 -29 -60 -39 -110 -39 -60 0 -107 29 -133 81 -18 36 -21 95 -6 104 6 3 10 13 10 21 0 22 59 72 89 77 43 7 104 -4 133 -24z m-1832 -234 c15 -17 5 -35 -20 -35 -22 0 -33 23 -17 39 15 15 22 14 37 -4z"/>
 <path d="M1720 621 c0 -9 10 -22 21 -30 18 -10 26 -11 46 0 37 20 25 42 -25 45 -33 2 -42 -1 -42 -15z"/>
 </g>
<g id="layer103" fill="#aea8cb" stroke="none">
 <path d="M0 610 l0 -610 1181 0 c1010 0 1182 2 1195 14 10 11 14 42 14 119 l0 105 57 4 c31 3 59 10 61 16 2 7 12 12 22 12 10 0 20 4 22 8 2 4 18 18 36 31 30 21 88 93 120 149 6 12 12 36 13 54 0 18 4 42 9 53 5 12 9 -35 9 -127 1 -81 5 -158 11 -172 9 -26 11 -26 115 -26 97 0 106 2 113 21 l8 20 27 -21 c24 -19 41 -22 121 -22 80 -1 101 3 148 25 62 29 151 110 170 153 12 26 13 20 16 -68 3 -116 10 -123 103 -116 l59 4 0 -118 0 -118 110 0 110 0 0 119 0 118 49 -5 c28 -2 61 -2 75 2 26 6 26 7 26 116 l0 110 -75 0 -75 0 0 250 0 250 -26 10 c-33 13 -135 13 -168 0 l-26 -10 0 -249 0 -249 -77 -4 c-43 -2 -80 -2 -82 -1 -2 1 4 14 13 27 21 33 23 195 2 234 -7 15 -20 41 -27 57 -19 42 -135 155 -159 155 -11 0 -20 4 -20 9 0 5 -12 11 -27 14 -16 3 -51 11 -80 17 -41 8 -60 8 -95 -5 -23 -8 -49 -15 -57 -15 -8 0 -20 -8 -27 -17 -11 -15 -13 6 -14 135 l0 152 -110 0 c-98 0 -110 -2 -120 -19 -6 -12 -10 -128 -11 -303 0 -167 -4 -275 -9 -263 -5 11 -9 36 -10 55 -1 19 -10 49 -20 65 -11 17 -26 44 -35 60 -9 17 -34 44 -56 60 -22 17 -45 35 -52 40 -25 21 -119 55 -150 55 -15 0 -17 14 -17 111 0 82 -4 114 -14 125 -13 12 -185 14 -1195 14 l-1181 0 0 -610z m764 153 c78 -63 89 -74 113 -118 50 -92 -30 -217 -119 -186 -18 6 -40 19 -50 28 -17 15 -19 15 -36 0 -34 -31 -76 -40 -115 -23 -47 19 -69 55 -70 115 -1 36 5 58 23 83 25 36 159 158 174 158 5 0 41 -26 80 -57z m549 -5 c12 -36 -4 -47 -72 -50 l-66 -3 -3 -105 c-1 -58 -4 -111 -7 -117 -6 -16 -37 -17 -53 -1 -17 17 -17 259 0 276 17 17 195 16 201 0z m82 -10 c3 -13 5 -63 3 -113 -3 -89 -3 -90 -28 -90 -25 0 -25 0 -27 99 0 55 1 105 4 113 8 22 42 15 48 -9z m95 8 c6 -8 11 -23 10 -33 -6 -56 15 -58 56 -3 30 42 68 60 86 42 8 -8 -1 -27 -30 -66 -23 -30 -42 -60 -42 -66 0 -6 14 -25 30 -42 23 -23 28 -33 20 -43 -16 -19 -51 -10 -77 20 -12 14 -29 25 -38 25 -13 0 -14 -9 -9 -55 7 -59 -4 -85 -36 -85 -12 0 -20 11 -24 31 -8 40 -8 252 0 273 8 20 38 21 54 2z m331 -3 c35 -21 38 -43 7 -44 -97 -3 -103 -4 -106 -21 -3 -16 6 -18 77 -18 l81 0 0 -31 c0 -22 -10 -41 -34 -65 -29 -29 -41 -34 -80 -34 -39 0 -51 5 -81 35 -24 25 -35 45 -35 65 0 95 95 158 171 113z m578 -9 c106 -21 144 -170 64 -250 -31 -32 -38 -34 -98 -34 -60 0 -67 2 -98 34 -37 37 -52 90 -40 147 7 40 59 95 94 102 40 7 45 7 78 1z m823 -25 c69 -49 78 -164 17 -220 -31 -29 -60 -39 -110 -39 -60 0 -107 29 -133 81 -18 36 -21 95 -6 104 6 3 10 13 10 21 0 22 59 72 89 77 43 7 104 -4 133 -24z m-1832 -234 c15 -17 5 -35 -20 -35 -22 0 -33 23 -17 39 15 15 22 14 37 -4z"/>
 <path d="M1720 621 c0 -9 10 -22 21 -30 18 -10 26 -11 46 0 37 20 25 42 -25 45 -33 2 -42 -1 -42 -15z"/>
 </g>
<g id="layer104" fill="#e4b8ce" stroke="none">
 <path d="M0 610 l0 -610 1181 0 c1010 0 1182 2 1195 14 10 11 14 42 14 119 l0 105 57 4 c31 3 59 10 61 16 2 7 12 12 22 12 10 0 20 4 22 8 2 4 18 18 36 31 30 21 88 93 120 149 6 12 12 36 13 54 0 18 4 42 9 53 5 12 9 -35 9 -127 1 -81 5 -158 11 -172 9 -26 11 -26 115 -26 97 0 106 2 113 21 l8 20 27 -21 c24 -19 41 -22 121 -22 80 -1 101 3 148 25 62 29 151 110 170 153 12 26 13 20 16 -68 3 -116 10 -123 103 -116 l59 4 0 -118 0 -118 110 0 110 0 0 119 0 118 49 -5 c28 -2 61 -2 75 2 26 6 26 7 26 116 l0 110 -75 0 -75 0 0 250 0 250 -26 10 c-33 13 -135 13 -168 0 l-26 -10 0 -249 0 -249 -77 -4 c-43 -2 -80 -2 -82 -1 -2 1 4 14 13 27 21 33 23 195 2 234 -7 15 -20 41 -27 57 -19 42 -135 155 -159 155 -11 0 -20 4 -20 9 0 5 -12 11 -27 14 -16 3 -51 11 -80 17 -41 8 -60 8 -95 -5 -23 -8 -49 -15 -57 -15 -8 0 -20 -8 -27 -17 -11 -15 -13 6 -14 135 l0 152 -110 0 c-98 0 -110 -2 -120 -19 -6 -12 -10 -128 -11 -303 0 -167 -4 -275 -9 -263 -5 11 -9 36 -10 55 -1 19 -10 49 -20 65 -11 17 -26 44 -35 60 -9 17 -34 44 -56 60 -22 17 -45 35 -52 40 -25 21 -119 55 -150 55 -15 0 -17 14 -17 111 0 82 -4 114 -14 125 -13 12 -185 14 -1195 14 l-1181 0 0 -610z m764 153 c78 -63 89 -74 113 -118 50 -92 -30 -217 -119 -186 -18 6 -40 19 -50 28 -17 15 -19 15 -36 0 -34 -31 -76 -40 -115 -23 -47 19 -69 55 -70 115 -1 36 5 58 23 83 25 36 159 158 174 158 5 0 41 -26 80 -57z m543 9 c7 -4 11 -21 10 -37 -2 -30 -3 -30 -69 -33 l-67 -3 -5 -62 c-2 -34 -4 -84 -3 -112 l2 -50 -37 -3 -38 -3 0 136 c0 75 5 145 10 156 9 17 22 19 98 19 48 0 92 -4 99 -8z m91 -4 c8 -8 12 -48 12 -114 0 -111 -10 -135 -49 -115 -17 10 -20 23 -23 108 -2 54 0 106 5 116 9 20 37 23 55 5z m86 6 c10 -4 16 -18 16 -39 0 -45 24 -65 41 -33 19 36 62 78 80 78 22 0 43 -26 33 -42 -4 -7 -23 -31 -41 -54 -18 -23 -33 -45 -33 -49 0 -4 14 -23 31 -42 16 -19 28 -40 26 -46 -7 -21 -79 -11 -98 14 -27 36 -48 19 -42 -34 6 -55 -10 -89 -40 -85 -21 3 -22 7 -25 162 -2 123 0 161 10 167 16 10 22 11 42 3z m350 -19 c31 -20 33 -40 7 -55 -14 -7 -28 -7 -47 0 -28 11 -64 5 -64 -11 0 -5 33 -9 74 -9 44 0 78 -5 82 -11 11 -19 -18 -89 -48 -114 -23 -20 -37 -23 -79 -20 -55 4 -80 20 -104 68 -19 38 -19 56 0 94 38 76 114 100 179 58z m565 -11 c106 -21 144 -170 64 -250 -31 -32 -38 -34 -98 -34 -60 0 -67 2 -98 34 -37 37 -52 90 -40 147 7 40 59 95 94 102 40 7 45 7 78 1z m823 -25 c69 -49 78 -164 17 -220 -31 -29 -60 -39 -110 -39 -60 0 -107 29 -133 81 -18 36 -21 95 -6 104 6 3 10 13 10 21 0 22 59 72 89 77 43 7 104 -4 133 -24z m-1821 -225 c9 -11 10 -20 2 -32 -15 -24 -44 -27 -59 -7 -28 38 27 75 57 39z"/>
 <path d="M1733 626 c-4 -5 2 -15 12 -22 20 -15 55 -2 55 20 0 15 -58 17 -67 2z"/>
 </g>
<g id="layer105" fill="#ffffff" stroke="none">
 <path d="M0 610 l0 -610 1181 0 c1010 0 1182 2 1195 14 10 11 14 42 14 119 l0 105 57 4 c31 3 59 10 61 16 2 7 12 12 22 12 10 0 20 4 22 8 2 4 18 18 36 31 30 21 88 93 120 149 6 12 12 36 13 54 0 18 4 42 9 53 5 12 9 -35 9 -127 1 -81 5 -158 11 -172 9 -26 11 -26 115 -26 97 0 106 2 113 21 l8 20 27 -21 c24 -19 41 -22 121 -22 80 -1 101 3 148 25 62 29 151 110 170 153 12 26 13 20 16 -68 3 -116 10 -123 103 -116 l59 4 0 -118 0 -118 110 0 110 0 0 119 0 118 49 -5 c28 -2 61 -2 75 2 26 6 26 7 26 116 l0 110 -75 0 -75 0 0 250 0 250 -26 10 c-33 13 -135 13 -168 0 l-26 -10 0 -249 0 -249 -77 -4 c-43 -2 -80 -2 -82 -1 -2 1 4 14 13 27 21 33 23 195 2 234 -7 15 -20 41 -27 57 -19 42 -135 155 -159 155 -11 0 -20 4 -20 9 0 5 -12 11 -27 14 -16 3 -51 11 -80 17 -41 8 -60 8 -95 -5 -23 -8 -49 -15 -57 -15 -8 0 -20 -8 -27 -17 -11 -15 -13 6 -14 135 l0 152 -110 0 c-98 0 -110 -2 -120 -19 -6 -12 -10 -128 -11 -303 0 -167 -4 -275 -9 -263 -5 11 -9 36 -10 55 -1 19 -10 49 -20 65 -11 17 -26 44 -35 60 -9 17 -34 44 -56 60 -22 17 -45 35 -52 40 -25 21 -119 55 -150 55 -15 0 -17 14 -17 111 0 82 -4 114 -14 125 -13 12 -185 14 -1195 14 l-1181 0 0 -610z m736 185 c20 -19 39 -35 41 -35 8 0 101 -98 111 -117 15 -27 8 -116 -11 -143 -21 -30 -67 -60 -92 -60 -11 0 -38 11 -60 23 l-40 23 -34 -23 c-38 -26 -62 -29 -94 -12 -45 24 -87 85 -87 127 0 26 53 124 74 136 25 16 74 56 105 88 14 15 31 27 38 28 6 0 28 -16 49 -35z m581 -30 c5 -14 7 -14 23 0 10 9 29 15 42 13 22 -3 23 -6 26 -118 2 -101 0 -116 -15 -128 -17 -13 -17 -14 0 -27 11 -8 17 -23 15 -37 -2 -18 -10 -24 -35 -26 -25 -3 -33 1 -38 19 -6 17 -2 27 14 40 l22 18 -21 11 c-18 10 -20 20 -20 102 0 72 -3 89 -12 80 -7 -7 -39 -12 -74 -12 l-62 0 -6 -52 c-3 -29 -4 -81 -2 -116 5 -69 -3 -80 -49 -68 l-25 6 0 149 c0 81 3 151 7 154 3 4 51 7 105 7 80 0 100 -3 105 -15z m181 3 c7 -7 12 -28 12 -47 l1 -36 42 48 c36 41 48 48 73 45 44 -5 42 -35 -5 -88 -23 -25 -41 -50 -41 -56 0 -5 14 -23 30 -39 35 -33 38 -50 11 -65 -29 -15 -37 -13 -74 20 -19 16 -36 27 -39 24 -3 -2 -3 -24 -1 -48 7 -57 -10 -88 -45 -84 l-27 3 -3 154 c-2 85 -1 160 2 167 7 17 48 18 64 2z m333 -9 c33 -23 37 -46 12 -65 -16 -12 -15 -13 15 -14 30 0 32 -2 32 -35 0 -27 -9 -45 -38 -76 -31 -34 -43 -40 -79 -41 -50 0 -104 30 -121 67 -52 113 80 235 179 164z m568 -15 c106 -21 144 -170 64 -250 -31 -32 -38 -34 -98 -34 -60 0 -67 2 -98 34 -37 37 -52 90 -40 147 7 40 59 95 94 102 40 7 45 7 78 1z m823 -25 c69 -49 78 -164 17 -220 -31 -29 -60 -39 -110 -39 -60 0 -107 29 -133 81 -18 36 -21 95 -6 104 6 3 10 13 10 21 0 22 59 72 89 77 43 7 104 -4 133 -24z"/>
 <path d="M1730 690 c0 -5 16 -10 35 -10 19 0 35 5 35 10 0 6 -16 10 -35 10 -19 0 -35 -4 -35 -10z"/>
 <path d="M1735 610 c8 -13 35 -13 55 0 11 7 5 10 -23 10 -23 0 -36 -4 -32 -10z"/>
 </g>

</svg>