<!DOCTYPE svg PUBLIC "-//W3C//DTD SVG 20010904//EN" "http://www.w3.org/TR/2001/REC-SVG-20010904/DTD/svg10.dtd">
<svg version="1.0" xmlns="http://www.w3.org/2000/svg" width="500px" height="150px" viewBox="0 0 5000 1500" preserveAspectRatio="xMidYMid meet">
<g id="layer101" fill="#2a1e78" stroke="none">
 <path d="M0 750 l0 -750 1479 0 c1471 0 1480 0 1486 20 3 11 11 20 16 20 6 0 9 48 8 122 l-1 123 33 8 c19 4 45 11 59 13 38 9 90 33 138 66 52 36 122 107 122 125 0 7 5 13 10 13 6 0 10 6 10 14 0 8 6 21 14 28 21 21 29 74 29 188 0 98 -8 158 -22 170 -3 3 -16 26 -29 53 -13 26 -28 47 -33 47 -5 0 -9 5 -9 11 0 18 -129 119 -152 119 -7 0 -22 7 -32 15 -11 8 -30 15 -42 15 -13 0 -26 5 -29 10 -3 6 -21 10 -38 10 l-32 0 3 135 c2 86 0 135 -7 135 -5 0 -13 9 -16 20 -6 20 -15 20 -1486 20 l-1479 0 0 -750z m2995 170 c3 -5 16 -10 29 -10 24 0 87 -52 105 -87 17 -33 14 -148 -4 -163 -8 -7 -15 -18 -15 -26 0 -7 -17 -26 -37 -41 -33 -26 -44 -28 -121 -28 -59 0 -87 4 -89 13 -3 6 -9 12 -15 12 -16 0 -58 52 -58 72 0 9 -4 20 -10 23 -5 3 -10 28 -10 55 0 27 5 52 10 55 6 3 10 14 10 24 0 26 69 91 96 91 13 0 26 5 29 10 3 6 21 10 40 10 19 0 37 -4 40 -10z"/>
 <path d="M3440 909 c0 -552 1 -593 18 -605 18 -14 205 -20 236 -8 10 4 16 18 16 35 l0 29 38 -23 c20 -13 51 -28 67 -32 37 -10 180 -11 220 -1 39 10 135 56 156 76 9 8 25 22 35 31 35 29 82 86 89 107 3 12 11 22 16 22 5 0 9 11 9 24 0 13 6 26 13 28 9 4 12 42 12 148 0 106 -3 144 -12 147 -7 3 -13 16 -13 29 0 13 -4 24 -9 24 -5 0 -13 10 -16 23 -18 60 -211 207 -273 207 -11 0 -24 5 -27 10 -3 6 -46 10 -95 10 -49 0 -92 -4 -95 -10 -3 -5 -14 -10 -23 -10 -10 0 -33 -11 -52 -24 l-35 -23 3 165 c2 91 1 176 -2 189 -6 23 -8 23 -141 23 l-135 0 0 -591z m538 5 c65 -13 123 -95 124 -174 0 -61 -45 -150 -77 -150 -7 0 -15 -6 -17 -12 -3 -9 -31 -13 -93 -13 -62 0 -90 4 -92 13 -3 6 -11 12 -18 12 -19 0 -65 62 -65 89 0 12 -6 30 -12 41 -10 16 -10 24 0 40 6 11 12 31 12 44 0 33 73 106 105 106 13 0 27 5 31 11 6 10 23 9 102 -7z"/>
 <path d="M4545 1166 c-14 -21 -15 -64 -13 -310 l3 -286 -82 0 c-112 0 -113 -2 -113 -144 0 -133 1 -134 119 -138 l74 -3 -2 -125 c-1 -69 1 -133 4 -142 6 -16 23 -18 140 -18 117 0 134 2 140 18 3 9 5 73 4 142 l-2 125 69 3 c123 4 114 -7 114 141 0 149 6 141 -108 141 l-77 0 3 283 c2 176 -1 294 -7 310 l-11 27 -120 0 c-115 0 -120 -1 -135 -24z"/>
 </g>
<g id="layer102" fill="#ff0032" stroke="none">
 <path d="M752 934 c-107 -87 -152 -152 -152 -222 0 -24 7 -56 15 -71 17 -33 65 -77 96 -86 33 -11 86 3 119 31 l30 26 30 -26 c38 -32 91 -42 130 -26 42 18 88 73 96 117 8 45 -9 115 -37 152 -30 39 -202 181 -219 180 -8 0 -57 -33 -108 -75z"/>
 <path d="M1393 949 c-13 -4 -15 -30 -15 -182 1 -97 4 -181 7 -187 9 -14 72 -12 82 3 4 6 6 49 4 94 -1 45 0 105 4 133 l7 50 68 0 c38 0 75 3 84 6 20 8 23 84 4 84 -7 0 -62 2 -121 3 -59 1 -115 0 -124 -4z"/>
 <path d="M1690 950 c-13 -7 -15 -34 -15 -152 l0 -143 37 -3 37 -3 3 143 c2 79 -1 149 -6 156 -10 14 -34 15 -56 2z"/>
 <path d="M1800 950 c-12 -7 -16 -41 -18 -172 -4 -195 0 -226 33 -234 13 -3 33 -1 45 6 17 9 20 17 15 41 -10 44 4 129 21 129 8 0 14 -6 14 -13 0 -8 11 -24 24 -36 18 -17 33 -22 67 -19 59 4 61 25 10 79 -23 23 -41 45 -41 49 0 4 9 15 20 25 11 10 20 22 20 26 0 4 16 24 35 43 19 20 35 43 35 51 0 36 -95 41 -108 6 -3 -9 -16 -24 -29 -34 -13 -10 -23 -25 -23 -33 0 -8 -7 -14 -15 -14 -19 0 -38 46 -30 71 5 14 -1 22 -20 29 -32 12 -36 12 -55 0z"/>
 <path d="M2130 933 c-55 -38 -77 -79 -75 -140 1 -31 10 -51 35 -80 44 -51 56 -57 117 -59 40 -2 55 2 69 17 9 10 23 19 29 19 20 0 46 48 51 95 4 37 2 44 -16 50 -11 4 -27 2 -34 -4 -17 -14 -139 -8 -144 7 -2 7 7 17 21 23 19 9 31 8 55 -5 25 -13 36 -14 56 -5 39 18 40 39 6 71 -27 24 -40 28 -88 28 -38 0 -66 -6 -82 -17z m117 -170 c2 -6 -5 -16 -16 -22 -31 -17 -87 10 -66 31 10 10 79 2 82 -9z"/>
 <path d="M1692 614 c-12 -8 -22 -26 -22 -39 0 -18 7 -25 30 -30 18 -4 36 -2 44 4 20 16 17 60 -5 71 -22 13 -21 13 -47 -6z"/>
 </g>
<g id="layer103" fill="#645b9b" stroke="none">
 <path d="M1393 949 c-13 -4 -15 -30 -15 -182 1 -97 4 -181 7 -187 9 -14 72 -12 82 3 4 6 6 49 4 94 -1 45 0 105 4 133 l7 50 68 0 c38 0 75 3 84 6 20 8 23 84 4 84 -7 0 -62 2 -121 3 -59 1 -115 0 -124 -4z"/>
 <path d="M1690 950 c-13 -7 -15 -34 -15 -152 l0 -143 37 -3 37 -3 3 143 c2 79 -1 149 -6 156 -10 14 -34 15 -56 2z"/>
 <path d="M1800 950 c-12 -7 -16 -41 -18 -172 -4 -195 0 -226 33 -234 13 -3 33 -1 45 6 17 9 20 17 15 41 -10 44 4 129 21 129 8 0 14 -6 14 -13 0 -8 11 -24 24 -36 18 -17 33 -22 67 -19 59 4 61 25 10 79 -23 23 -41 45 -41 49 0 4 9 15 20 25 11 10 20 22 20 26 0 4 16 24 35 43 19 20 35 43 35 51 0 36 -95 41 -108 6 -3 -9 -16 -24 -29 -34 -13 -10 -23 -25 -23 -33 0 -8 -7 -14 -15 -14 -19 0 -38 46 -30 71 5 14 -1 22 -20 29 -32 12 -36 12 -55 0z"/>
 <path d="M2130 933 c-55 -38 -77 -79 -75 -140 1 -31 10 -51 35 -80 44 -51 56 -57 117 -59 40 -2 55 2 69 17 9 10 23 19 29 19 20 0 46 48 51 95 4 37 2 44 -16 50 -11 4 -27 2 -34 -4 -17 -14 -139 -8 -144 7 -2 7 7 17 21 23 19 9 31 8 55 -5 25 -13 36 -14 56 -5 39 18 40 39 6 71 -27 24 -40 28 -88 28 -38 0 -66 -6 -82 -17z m117 -170 c2 -6 -5 -16 -16 -22 -31 -17 -87 10 -66 31 10 10 79 2 82 -9z"/>
 <path d="M1692 614 c-12 -8 -22 -26 -22 -39 0 -18 7 -25 30 -30 18 -4 36 -2 44 4 20 16 17 60 -5 71 -22 13 -21 13 -47 -6z"/>
 </g>
<g id="layer104" fill="#f6f6f9" stroke="none">
 <path d="M1392 938 c-8 -8 -12 -60 -12 -180 0 -155 1 -168 19 -178 24 -12 32 -12 51 0 12 7 16 39 20 147 l5 138 79 5 c61 4 81 9 90 23 8 12 8 22 0 35 -9 14 -29 17 -125 20 -81 2 -118 -1 -127 -10z"/>
 <path d="M1685 940 c-9 -15 -19 -223 -11 -253 7 -30 40 -44 62 -26 12 10 14 38 12 148 l-3 136 -27 3 c-14 2 -29 -2 -33 -8z"/>
 <path d="M1804 939 c-10 -17 -13 -352 -2 -371 10 -21 39 -23 56 -6 7 7 12 43 12 90 0 51 4 78 11 78 6 0 30 -18 52 -41 43 -43 80 -49 101 -17 9 14 3 25 -33 62 l-44 45 58 71 c48 58 55 73 45 85 -24 29 -55 17 -109 -41 -28 -30 -57 -54 -64 -51 -7 2 -13 23 -15 48 -2 24 -9 47 -15 51 -18 11 -45 10 -53 -3z"/>
 <path d="M2139 927 c-110 -74 -103 -198 14 -256 44 -22 52 -23 87 -11 22 7 53 26 69 42 34 33 56 95 41 113 -6 7 -45 10 -104 9 -85 -2 -96 0 -96 15 0 20 36 40 60 34 57 -13 82 -14 95 -3 22 18 19 27 -22 55 -48 32 -99 33 -144 2z m128 -160 c9 -15 -26 -37 -58 -37 -40 0 -59 10 -59 30 0 14 9 17 55 17 31 0 58 -4 62 -10z"/>
 <path d="M1679 604 c-19 -23 1 -49 37 -49 20 0 30 6 32 18 8 40 -43 63 -69 31z"/>
 </g>

</svg>