<!DOCTYPE svg PUBLIC "-//W3C//DTD SVG 20010904//EN" "http://www.w3.org/TR/2001/REC-SVG-20010904/DTD/svg10.dtd">
<svg version="1.0" xmlns="http://www.w3.org/2000/svg" width="500px" height="500px" viewBox="0 0 5000 5000" preserveAspectRatio="xMidYMid meet">
<g id="layer101" fill="#919397" stroke="none">
 <path d="M510 4985 c-7 -8 -19 -15 -26 -15 -25 0 -107 -42 -181 -93 -85 -58 -168 -144 -202 -210 -8 -15 -18 -27 -23 -27 -4 0 -8 -9 -8 -20 0 -11 -4 -20 -10 -20 -5 0 -10 -9 -10 -19 0 -11 -5 -23 -10 -26 -6 -3 -10 -17 -10 -30 0 -12 -7 -25 -15 -29 -13 -5 -15 -236 -15 -1996 0 -1760 2 -1991 15 -1996 8 -4 15 -17 15 -29 0 -13 5 -27 10 -30 6 -3 10 -15 10 -26 0 -10 5 -19 10 -19 6 0 10 -9 10 -20 0 -11 4 -20 8 -20 5 0 14 -11 20 -24 24 -53 113 -148 188 -202 73 -52 170 -104 194 -104 10 0 23 -7 30 -15 11 -13 244 -15 1990 -15 1746 0 1979 2 1990 15 7 8 19 15 26 15 25 0 107 42 181 93 85 58 168 144 202 210 8 15 18 27 23 27 4 0 8 9 8 20 0 11 5 20 10 20 6 0 10 9 10 19 0 11 5 23 10 26 6 3 10 17 10 30 0 12 7 25 15 29 13 5 15 236 15 1996 0 1760 -2 1991 -15 1996 -8 4 -15 17 -15 29 0 13 -4 27 -10 30 -5 3 -10 15 -10 26 0 10 -4 19 -10 19 -5 0 -10 9 -10 20 0 11 -4 20 -8 20 -5 0 -15 12 -23 27 -34 66 -117 152 -202 210 -74 51 -156 93 -181 93 -7 0 -19 7 -26 15 -11 13 -244 15 -1990 15 -1746 0 -1979 -2 -1990 -15z m3934 -334 c71 -35 176 -129 176 -156 0 -8 3 -15 8 -15 4 0 13 -15 20 -32 8 -18 19 -44 25 -57 17 -35 17 -3747 0 -3782 -6 -13 -17 -39 -25 -56 -7 -18 -16 -33 -20 -33 -5 0 -8 -7 -8 -15 0 -27 -105 -121 -176 -156 l-69 -34 -1875 0 -1875 0 -69 34 c-71 35 -176 129 -176 156 0 8 -3 15 -8 15 -4 0 -13 15 -20 33 -8 17 -19 43 -25 56 -17 35 -17 3747 0 3782 6 13 17 39 25 57 7 17 16 32 20 32 5 0 8 7 8 15 0 25 104 120 166 150 32 16 77 32 99 36 22 4 870 6 1885 5 l1845 -1 69 -34z"/>
 <path d="M2388 3834 c-4 -4 -38 -11 -75 -15 -124 -16 -153 -21 -159 -30 -3 -5 -16 -9 -30 -9 -13 0 -32 -4 -42 -9 -9 -5 -28 -13 -42 -19 -144 -58 -274 -130 -361 -198 -97 -77 -254 -247 -290 -315 -6 -13 -15 -26 -18 -29 -10 -8 -39 -61 -77 -140 -20 -41 -40 -83 -45 -92 -5 -10 -9 -27 -9 -38 0 -11 -4 -20 -9 -20 -5 0 -11 -15 -14 -32 -3 -18 -11 -53 -17 -78 -45 -176 -45 -444 0 -620 6 -25 14 -60 17 -77 3 -18 9 -33 14 -33 5 0 9 -9 9 -20 0 -11 4 -28 9 -38 5 -9 26 -51 46 -92 81 -169 150 -264 277 -385 99 -95 111 -105 197 -160 84 -54 172 -99 271 -138 14 -5 33 -13 42 -18 10 -5 29 -9 42 -9 14 0 27 -4 30 -9 3 -5 25 -12 48 -15 24 -4 75 -11 113 -18 90 -14 280 -14 370 0 39 7 89 14 113 18 23 3 45 10 48 15 3 5 16 9 30 9 13 0 32 4 42 9 9 5 28 13 42 18 183 73 333 167 462 291 134 129 201 221 283 392 20 41 41 83 46 92 5 10 9 25 9 33 0 8 4 23 9 33 8 16 15 37 41 140 33 130 33 414 0 545 -26 102 -33 123 -41 139 -5 10 -9 25 -9 33 0 8 -4 23 -9 33 -5 9 -25 51 -45 92 -38 79 -67 132 -77 140 -3 3 -12 16 -18 29 -87 164 -377 404 -591 488 -45 18 -85 35 -102 44 -10 5 -29 9 -42 9 -14 0 -27 4 -30 9 -3 5 -25 12 -48 15 -24 4 -72 11 -108 17 -85 13 -293 23 -302 13z m311 -350 c211 -44 366 -127 514 -277 77 -79 137 -156 137 -175 0 -6 4 -12 9 -14 12 -4 71 -124 71 -143 0 -8 4 -15 9 -15 9 0 10 -2 40 -140 28 -130 28 -310 0 -440 -30 -138 -31 -140 -40 -140 -5 0 -9 -7 -9 -15 0 -19 -59 -139 -71 -143 -5 -2 -9 -8 -9 -14 0 -19 -60 -96 -137 -175 -197 -201 -423 -293 -720 -293 -137 0 -169 5 -313 48 -149 45 -272 122 -393 245 -77 78 -137 156 -137 176 0 6 -4 11 -9 11 -10 0 -70 121 -96 195 -58 165 -58 485 0 650 25 71 87 195 97 195 4 0 8 5 8 11 0 21 63 102 140 179 144 145 300 230 503 274 89 19 315 20 406 0z"/>
 <path d="M3885 1488 c-103 -26 -173 -66 -245 -139 -82 -83 -111 -139 -130 -250 -9 -50 -9 -81 0 -130 20 -110 49 -165 130 -248 107 -110 259 -166 385 -141 158 31 285 125 352 260 87 178 54 369 -91 514 -112 113 -271 166 -401 134z m150 -344 c71 -47 71 -171 0 -218 -13 -9 -45 -16 -70 -16 -53 0 -89 20 -110 63 -29 58 -13 130 37 169 29 23 110 24 143 2z"/>
 </g>

</svg>