<!DOCTYPE svg PUBLIC "-//W3C//DTD SVG 20010904//EN" "http://www.w3.org/TR/2001/REC-SVG-20010904/DTD/svg10.dtd">
<svg version="1.0" xmlns="http://www.w3.org/2000/svg" width="500px" height="370px" viewBox="0 0 5000 3700" preserveAspectRatio="xMidYMid meet">
<g id="layer101" fill="#2c2375" stroke="none">
 <path d="M797 3684 c-185 -40 -348 -126 -485 -258 -137 -131 -222 -269 -279 -452 l-28 -89 0 -1035 0 -1035 28 -89 c107 -343 350 -586 692 -693 l90 -28 1650 -3 c1468 -2 1659 -1 1728 13 191 39 354 124 495 259 136 130 222 270 279 453 l28 88 0 1035 0 1035 -28 88 c-57 183 -143 323 -279 453 -140 134 -301 219 -491 258 -67 14 -262 16 -1704 15 -1389 -1 -1638 -3 -1696 -15z m3351 -230 c273 -56 487 -247 586 -522 l31 -87 0 -995 0 -995 -31 -87 c-99 -275 -313 -466 -586 -522 -68 -14 -255 -16 -1648 -16 -1393 0 -1580 2 -1648 16 -273 56 -487 247 -586 522 l-31 87 0 995 0 995 31 87 c80 223 237 392 442 479 145 60 61 57 1785 58 1401 1 1586 -1 1655 -15z"/>
 <path d="M1770 1850 c0 -799 2 -951 14 -948 18 4 1626 942 1626 948 0 7 -1608 944 -1626 948 -12 3 -14 -148 -14 -948z m733 260 c240 -140 437 -257 437 -260 0 -4 -268 -162 -907 -533 l-33 -19 0 552 0 552 33 -19 c17 -10 229 -133 470 -273z"/>
 </g>

</svg>